<svg version="1.1" xmlns="http://www.w3.org/2000/svg" xmlns:xlink="http://www.w3.org/1999/xlink" width="88" height="248" viewBox="0,0,88,248"><g transform="translate(-157,-55)"><g data-paper-data="{&quot;isPaintingLayer&quot;:true}" fill-rule="nonzero" stroke-linejoin="miter" stroke-miterlimit="10" stroke-dasharray="" stroke-dashoffset="0" style="mix-blend-mode: normal"><path d="M159.5,300.5v-212h82v212z" fill="#00ceff" stroke="#000000" stroke-width="5" stroke-linecap="butt"/><path d="M178.5,85.5v-28h44v28z" fill="#00ceff" stroke="#000000" stroke-width="5" stroke-linecap="butt"/><path d="M181.5,67.5l39,-2" fill="none" stroke="#000000" stroke-width="5" stroke-linecap="round"/><path d="M180.5,75.5h40" fill="none" stroke="#000000" stroke-width="5" stroke-linecap="round"/><path d="M181.00319,114.94017c-0.06679,0.29569 -0.20012,0.61218 -0.42306,0.94658c-1.38675,2.08012 -3.46688,0.69337 -3.46688,0.69337l-4.00598,-4.80458l7.39273,-1.77554c0,0 2.5,0 2.5,2.5c0,1.77956 -1.26673,2.29238 -1.99681,2.44017z" fill="#00ceff" stroke="none" stroke-width="0.5" stroke-linecap="butt"/><path d="M177,107.5c0,-1.38071 1.11929,-2.5 2.5,-2.5c1.38071,0 2.5,1.11929 2.5,2.5c0,1.38071 -1.11929,2.5 -2.5,2.5c-1.38071,0 -2.5,-1.11929 -2.5,-2.5z" fill="#000000" stroke="none" stroke-width="0.5" stroke-linecap="butt"/><path d="M208,111.5c0,-1.38071 1.11929,-2.5 2.5,-2.5c1.38071,0 2.5,1.11929 2.5,2.5c0,1.38071 -1.11929,2.5 -2.5,2.5c-1.38071,0 -2.5,-1.11929 -2.5,-2.5z" fill="#000000" stroke="none" stroke-width="0.5" stroke-linecap="butt"/><path d="M189.87171,137.70943c0.79057,2.37171 -1.58114,3.16228 -1.58114,3.16228l-3,1c0,0 -2.37171,0.79057 -3.16228,-1.58114c-0.79057,-2.37171 1.58114,-3.16228 1.58114,-3.16228l3,-1c0,0 2.37171,-0.79057 3.16228,1.58114z" fill="#000000" stroke="none" stroke-width="0.5" stroke-linecap="butt"/><path d="M225,137.5c0,-1.38071 1.11929,-2.5 2.5,-2.5c1.38071,0 2.5,1.11929 2.5,2.5c0,1.38071 -1.11929,2.5 -2.5,2.5c-1.38071,0 -2.5,-1.11929 -2.5,-2.5z" fill="#000000" stroke="none" stroke-width="0.5" stroke-linecap="butt"/><path d="M220.73607,164.61804c-1.11803,2.23607 -3.35411,1.11804 -3.35411,1.11804l-0.88197,-0.73607c-0.56378,0 -1.12756,0.00024 -1.69135,0.00061c0.39515,0.16712 0.79169,0.32977 1.19129,0.48242l-5.69994,2.23643c1.21399,0.72529 2.37321,1.5447 3.54784,2.33765c0.75696,-0.15741 1.44273,0.07118 1.44273,0.07118l3,1c0,0 2.37171,0.79057 1.58114,3.16228c-0.79057,2.37171 -3.16228,1.58114 -3.16228,1.58114l-3,-1c0,0 -2.14499,-0.715 -1.67522,-2.82496l-2.21443,0.93271c-5.64548,1.50445 -12.07128,3.31182 -16.93303,6.60066c0,0 -2.08013,1.38675 -3.46688,-0.69338c-1.38675,-2.08013 0.69338,-3.46688 0.69338,-3.46688c2.94709,-1.9409 6.29861,-3.42915 9.75452,-4.64731c-1.24476,0.05219 -2.49285,0.13782 -3.69,0.18779c-0.44929,0.06975 -0.89984,0.09279 -1.35251,0.03786c-0.10908,0.00118 -0.21752,0.00179 -0.32527,0.00179l-0.1854,-0.0927c-1.58402,-0.36571 -2.95462,-1.44222 -4.41819,-2.20909l-0.39641,-0.19821c0.36696,-0.19206 0.73449,-0.37562 1.10262,-0.55131l2.92874,-1.46437c-0.33648,-0.34017 -0.67082,-0.68386 -1.03136,-0.98432v0c1,-0.83334 1.79843,-1.99935 3,-2.5c0.40193,-0.16747 0.8176,-0.25813 1.24281,-0.29766l-0.24281,-0.20234l0.08599,-0.07165c-0.31599,-0.28664 -0.63248,-0.57241 -0.95587,-0.84616c-0.20235,-0.1321 -0.40596,-0.26169 -0.61139,-0.38765l0.09012,-0.03608c-0.02546,-0.01975 -0.05098,-0.03938 -0.07657,-0.05891l1.18244,-0.38385l4.28528,-1.7157c3.72543,0.02589 7.25042,-1.79833 11,-1c1.90952,0.40655 3.64515,1.3997 5.46772,2.09955l-0.07431,0.05993l2.72463,1.10446c0,0 2.23607,1.11803 1.11804,3.35411z" fill="#ffffff" stroke="none" stroke-width="0.5" stroke-linecap="butt"/><path d="M185,184.5c0,-1.38071 1.11929,-2.5 2.5,-2.5c1.38071,0 2.5,1.11929 2.5,2.5c0,1.38071 -1.11929,2.5 -2.5,2.5c-1.38071,0 -2.5,-1.11929 -2.5,-2.5z" fill="#ffffff" stroke="none" stroke-width="0.5" stroke-linecap="butt"/><path d="M187,242.5c0,-1.38071 1.11929,-2.5 2.5,-2.5c1.38071,0 2.5,1.11929 2.5,2.5c0,1.38071 -1.11929,2.5 -2.5,2.5c-1.38071,0 -2.5,-1.11929 -2.5,-2.5z" fill="#000000" stroke="none" stroke-width="0.5" stroke-linecap="butt"/><path d="M228,245.5c0,-1.38071 1.11929,-2.5 2.5,-2.5c1.38071,0 2.5,1.11929 2.5,2.5c0,1.38071 -1.11929,2.5 -2.5,2.5c-1.38071,0 -2.5,-1.11929 -2.5,-2.5z" fill="#000000" stroke="none" stroke-width="0.5" stroke-linecap="butt"/><path d="M216,282.5c0,-1.38071 1.11929,-2.5 2.5,-2.5c1.38071,0 2.5,1.11929 2.5,2.5c0,1.38071 -1.11929,2.5 -2.5,2.5c-1.38071,0 -2.5,-1.11929 -2.5,-2.5z" fill="#000000" stroke="none" stroke-width="0.5" stroke-linecap="butt"/><path d="M178,267.5c0,-1.38071 1.11929,-2.5 2.5,-2.5c1.38071,0 2.5,1.11929 2.5,2.5c0,1.38071 -1.11929,2.5 -2.5,2.5c-1.38071,0 -2.5,-1.11929 -2.5,-2.5z" fill="#000000" stroke="none" stroke-width="0.5" stroke-linecap="butt"/><path d="M213.88675,210.41988c2.08013,1.38675 0.69338,3.46688 0.69338,3.46688l-2,3c0,0 -1.38675,2.08013 -3.46688,0.69338c-2.08013,-1.38675 -0.69338,-3.46688 -0.69338,-3.46688l2,-3c0,0 1.38675,-2.08013 3.46688,-0.69338z" fill="#ffffff" stroke="none" stroke-width="0.5" stroke-linecap="butt"/><path d="M178,207.5c0,-1.38071 1.11929,-2.5 2.5,-2.5c1.38071,0 2.5,1.11929 2.5,2.5c0,1.38071 -1.11929,2.5 -2.5,2.5c-1.38071,0 -2.5,-1.11929 -2.5,-2.5z" fill="#ffffff" stroke="none" stroke-width="0.5" stroke-linecap="butt"/><path d="M203,157.5c0,-1.38071 1.11929,-2.5 2.5,-2.5c1.38071,0 2.5,1.11929 2.5,2.5c0,1.38071 -1.11929,2.5 -2.5,2.5c-1.38071,0 -2.5,-1.11929 -2.5,-2.5z" fill="#000000" stroke="none" stroke-width="0.5" stroke-linecap="butt"/><path d="M167,119.5c0,-1.38071 1.11929,-2.5 2.5,-2.5c1.38071,0 2.5,1.11929 2.5,2.5c0,1.38071 -1.11929,2.5 -2.5,2.5c-1.38071,0 -2.5,-1.11929 -2.5,-2.5z" fill="#000000" stroke="none" stroke-width="0.5" stroke-linecap="butt"/><path d="M228,101.5c0,-1.38071 1.11929,-2.5 2.5,-2.5c1.38071,0 2.5,1.11929 2.5,2.5c0,1.38071 -1.11929,2.5 -2.5,2.5c-1.38071,0 -2.5,-1.11929 -2.5,-2.5z" fill="#000000" stroke="none" stroke-width="0.5" stroke-linecap="butt"/><path d="M173,168.5c0,-1.38071 1.11929,-2.5 2.5,-2.5c1.38071,0 2.5,1.11929 2.5,2.5c0,1.38071 -1.11929,2.5 -2.5,2.5c-1.38071,0 -2.5,-1.11929 -2.5,-2.5z" fill="#ffffff" stroke="none" stroke-width="0.5" stroke-linecap="butt"/><path d="M226,194.5c0,-1.38071 1.11929,-2.5 2.5,-2.5c1.38071,0 2.5,1.11929 2.5,2.5c0,1.38071 -1.11929,2.5 -2.5,2.5c-1.38071,0 -2.5,-1.11929 -2.5,-2.5z" fill="#ffffff" stroke="none" stroke-width="0.5" stroke-linecap="butt"/><path d="M160.5,157.5l77,-2l-75,7" fill="none" stroke="#000000" stroke-width="5" stroke-linecap="round"/><path d="M242.5,238.5l-78,2l75,-3" fill="none" stroke="#000000" stroke-width="5" stroke-linecap="round"/><path d="M164.5,238.5v-77h73v77z" fill="#ffffff" stroke="#000000" stroke-width="5" stroke-linecap="butt"/><path d="M159.5,240.5l15,-2" fill="none" stroke="#000000" stroke-width="5" stroke-linecap="round"/><path d="M241.5,156.5l-11,5l8,-5" fill="none" stroke="#000000" stroke-width="5" stroke-linecap="round"/><path d="M236,157.5c0,-1.38071 1.11929,-2.5 2.5,-2.5c1.38071,0 2.5,1.11929 2.5,2.5c0,1.38071 -1.11929,2.5 -2.5,2.5c-1.38071,0 -2.5,-1.11929 -2.5,-2.5z" fill="#000000" stroke="none" stroke-width="0.5" stroke-linecap="butt"/><text transform="translate(170.5,202.5) scale(0.5,0.5)" font-size="40" xml:space="preserve" fill="#000000" fill-rule="nonzero" stroke="none" stroke-width="1" stroke-linecap="butt" stroke-linejoin="miter" stroke-miterlimit="10" stroke-dasharray="" stroke-dashoffset="0" font-family="Marker" font-weight="normal" text-anchor="start" style="mix-blend-mode: normal"><tspan x="0" dy="0">WATER</tspan></text></g></g></svg>